<svg width="100" height="50" viewBox="0 0 100 50" fill="none" xmlns="http://www.w3.org/2000/svg">
<g clip-path="url(#clip0_369_18261)">
<path d="M32.4956 23.4446C32.9929 22.2993 33.4639 21.2288 33.9218 20.1538C34.005 19.9581 34.1343 19.8988 34.3271 19.9142C34.4125 19.9208 34.5001 19.9164 34.5878 19.9164C49.0818 19.9164 63.5736 19.9164 78.0676 19.9164C79.1323 19.9164 79.2089 19.9889 79.1323 21.0089C78.8825 24.3217 78.1946 27.5136 76.3544 30.345C73.6554 34.4932 69.7778 36.7948 64.945 37.5576C62.614 37.9269 60.2831 37.9533 57.9477 37.5862C57.6717 37.5422 57.4789 37.4851 57.3518 37.1971C56.8304 36.0254 56.2806 34.8691 55.7197 33.6601C56.7888 33.8887 57.8031 34.1789 58.8372 34.3129C63.8934 34.9636 68.4765 34.0162 72.1241 30.1472C73.7452 28.4281 74.7048 26.3574 75.1517 24.0404C75.2327 23.6183 75.1319 23.4073 74.6741 23.4424C74.501 23.4556 74.3279 23.4446 74.1527 23.4446C60.5262 23.4446 46.902 23.4446 33.2755 23.4446C33.0477 23.4446 32.8133 23.4446 32.4956 23.4446Z" fill="#37404A"/>
<path d="M45.7058 17.9027C44.4548 17.9027 43.2653 17.8917 42.0779 17.9093C41.712 17.9137 41.6682 17.6411 41.5652 17.4191C40.3691 14.8603 39.1795 12.2971 37.9834 9.73831C37.8848 9.52727 37.8256 9.28326 37.5912 9.15576C37.1991 9.20412 37.1575 9.55585 37.0348 9.80865C33.5822 17.0212 30.1361 24.2382 26.6901 31.4552C25.8466 33.2204 25.0032 34.9834 24.1773 36.7574C23.9363 37.2762 23.5858 37.5092 23.0074 37.4917C22.0194 37.4631 21.0292 37.4829 20.0915 37.4829C19.9316 37.0916 20.1069 36.8937 20.2033 36.6871C25.6626 25.1087 31.1241 13.5325 36.5879 1.95638C36.6426 1.83767 36.7018 1.72116 36.7587 1.60465C36.9143 1.29249 37.0435 0.93857 37.4685 0.931975C37.8979 0.92538 38.0425 1.2815 38.1893 1.59146C40.6758 6.9289 43.1579 12.2707 45.6378 17.6126C45.6663 17.6697 45.6685 17.7357 45.7058 17.9027Z" fill="#37404A"/>
<path d="M77.1782 7.17072C76.4071 7.89836 75.6053 8.65676 74.7991 9.41078C74.4814 9.70755 74.2996 9.41517 74.1002 9.22832C72.2972 7.53124 70.2839 6.13973 67.9946 5.19227C61.5976 2.54333 55.5796 3.16105 50.0392 7.41913C48.2932 8.76008 46.9788 10.4879 45.9907 12.462C45.9075 12.6291 45.8242 12.7961 45.684 13.0731C45.0246 11.6596 44.4178 10.3472 43.8022 9.03927C43.7014 8.82823 43.8438 8.70952 43.9358 8.57543C46.5275 4.80317 49.9801 2.18941 54.3791 0.923196C59.707 -0.609009 64.9319 -0.228705 70.0079 2.00036C72.5579 3.11928 74.764 4.7658 76.8168 6.62775C76.9592 6.75964 77.1213 6.88055 77.1782 7.17072Z" fill="#37404A"/>
<path d="M54.7644 37.4565C53.553 37.4565 52.4532 37.4609 51.3534 37.4521C51.0862 37.4499 50.9175 37.2631 50.8123 37.0388C49.0203 33.2512 47.2305 29.4613 45.4428 25.6715C45.4275 25.6385 45.4494 25.588 45.4581 25.4868C46.639 25.4868 47.8263 25.4934 49.0137 25.4824C49.292 25.4802 49.3796 25.6407 49.476 25.8474C51.1869 29.5295 52.9023 33.2094 54.6111 36.8915C54.6724 37.0212 54.69 37.1729 54.7644 37.4565Z" fill="#37404A"/>
<path d="M16.1198 44.0052C14.6344 44.0052 13.2302 44.0118 11.8237 44.003C11.2848 43.9986 10.9562 44.2009 10.9167 44.779C10.8707 45.4693 11.1446 45.7814 11.8522 45.7858C12.849 45.7924 13.8458 45.7814 14.8426 45.7902C15.8678 45.799 16.341 46.2475 16.433 47.2763C16.6302 49.457 16.2162 49.9208 14.0583 49.9296C12.9519 49.934 11.8478 49.923 10.7415 49.9362C10.3997 49.9406 10.2113 49.8505 10.2091 49.468C10.2069 49.0701 10.426 49.0107 10.7546 49.0129C12.0121 49.0195 13.2696 49.0151 14.5249 49.0085C15.3683 49.0041 15.5633 48.7909 15.5655 47.8962C15.5699 46.9509 15.3859 46.7333 14.5118 46.7267C13.6026 46.7179 12.6912 46.7443 11.7799 46.7333C11.1336 46.7267 10.4501 46.6564 10.2069 45.9463C9.94405 45.1791 9.88709 44.3592 10.3274 43.6161C10.5531 43.2358 10.9671 43.0907 11.3921 43.0842C12.8227 43.0622 14.2532 43.0556 15.6838 43.0512C16.3827 43.0468 16.111 43.5282 16.1198 44.0052Z" fill="#37404A"/>
<path d="M38.404 46.4365C38.404 45.7617 38.3799 45.0868 38.4106 44.4141C38.45 43.5348 38.8706 43.0644 39.7382 43.0336C41.103 42.9874 42.4722 42.9852 43.8349 43.0292C44.6739 43.0556 45.1428 43.5568 45.1669 44.4207C45.2063 45.7683 45.2085 47.118 45.1734 48.4656C45.1515 49.2899 44.7156 49.7713 43.894 49.8461C42.5117 49.9692 41.1184 49.9538 39.736 49.8637C38.8531 49.8065 38.4719 49.3493 38.4281 48.459C38.3953 47.7863 38.4215 47.1114 38.4215 46.4365C38.4194 46.4365 38.4106 46.4365 38.404 46.4365ZM39.3 46.4036C39.3 46.9685 39.3066 47.5335 39.2978 48.0985C39.2891 48.6986 39.5783 48.9734 40.1698 48.969C41.2542 48.9602 42.3364 48.9558 43.4208 48.958C44.008 48.9602 44.3147 48.6788 44.3147 48.0919C44.3147 46.9619 44.3081 45.832 44.2927 44.7021C44.2862 44.1987 43.9926 43.9459 43.5085 43.9415C42.3605 43.9305 41.2126 43.9305 40.0624 43.9415C39.5323 43.9459 39.2825 44.2339 39.2978 44.7724C39.311 45.3154 39.3 45.8584 39.3 46.4036Z" fill="#37404A"/>
<path d="M74.4573 42.9808C76.12 42.9808 77.6996 42.9413 79.2747 42.9962C80.0853 43.0248 80.53 43.5436 80.5695 44.3548C80.6155 45.2956 80.6878 46.2607 79.5288 46.6893C79.1937 46.8124 79.4149 47.096 79.4938 47.3005C79.8049 48.1006 80.1269 48.8964 80.4555 49.723C79.8706 49.9274 79.5135 49.8461 79.3098 49.2899C79.0556 48.5974 78.7511 47.9248 78.4904 47.2345C78.3568 46.8784 78.1312 46.7157 77.7587 46.7223C77.1738 46.7333 76.5889 46.7509 76.0039 46.7267C75.5351 46.7069 75.3336 46.8674 75.3577 47.362C75.3905 48.0567 75.3642 48.7513 75.3708 49.4482C75.373 49.7735 75.1934 49.8439 74.913 49.8417C74.6369 49.8395 74.4551 49.7757 74.4551 49.4482C74.4595 47.3224 74.4573 45.1967 74.4573 42.9808ZM77.3644 45.7858C77.3644 45.7836 77.3644 45.7792 77.3644 45.777C77.8201 45.777 78.2757 45.7836 78.7314 45.7748C79.4719 45.7617 79.6778 45.5572 79.6866 44.856C79.6953 44.1459 79.4894 43.8909 78.784 43.8711C77.831 43.8448 76.8759 43.8601 75.9229 43.8667C75.7345 43.8689 75.4672 43.8426 75.419 44.0646C75.3095 44.5746 75.2547 45.1263 75.4343 45.6078C75.5658 45.9595 76.0171 45.7507 76.3238 45.777C76.6677 45.8078 77.0161 45.7858 77.3644 45.7858Z" fill="#37404A"/>
<path d="M71.0792 46.2101C71.0792 47.0828 71.112 47.9291 71.0682 48.7733C71.0419 49.2877 70.6607 49.6064 70.181 49.6899C68.7854 49.9296 67.3768 49.9384 65.9857 49.6899C65.3219 49.5712 65.0217 49.0415 65.0108 48.393C64.9867 47.0652 64.9713 45.7374 64.9976 44.4119C65.0152 43.5919 65.4117 43.1237 66.1982 43.0313C67.6879 42.8555 69.1864 42.961 70.6826 42.9412C71.0112 42.9368 71.0529 43.1654 71.0573 43.4292C71.0638 43.737 70.9214 43.8513 70.6235 43.8491C69.561 43.8491 68.4985 43.8579 67.4359 43.8711C67.1555 43.8755 66.8729 43.8931 66.5925 43.9194C66.1872 43.9568 65.9528 44.1723 65.955 44.5943C65.9572 45.7902 65.9594 46.9883 65.9703 48.1841C65.9747 48.6612 66.2354 48.8986 66.7086 48.8986C67.62 48.8986 68.5291 48.903 69.4405 48.8942C69.9663 48.8898 70.2379 48.6216 70.2226 48.0786C70.2116 47.6653 70.2467 47.2499 70.2116 46.8388C70.159 46.2013 70.411 45.9924 71.0792 46.2101Z" fill="#37404A"/>
<path d="M54.6223 47.9401C54.8698 47.7467 54.7822 47.4873 54.7822 47.2608C54.7822 46.0628 54.7625 44.8647 54.7668 43.6688C54.7668 43.3963 54.6266 43.0006 55.1283 42.994C55.6497 42.9874 55.5533 43.3875 55.5533 43.6974C55.5643 45.5484 55.5687 47.3993 55.5665 49.2503C55.5665 49.4547 55.6651 49.7185 55.4131 49.8372C55.1371 49.9669 54.9772 49.7273 54.8085 49.569C53.1917 48.0522 51.5771 46.5332 49.9582 45.0186C49.8201 44.8889 49.7106 44.7064 49.474 44.6976C49.2352 44.8647 49.3316 45.1263 49.3294 45.3461C49.3228 46.6739 49.3316 48.0017 49.3382 49.3316C49.3404 49.6306 49.3557 49.9252 48.9329 49.9142C48.5188 49.9032 48.5385 49.6086 48.5385 49.314C48.5385 47.4191 48.5298 45.5264 48.5298 43.6315C48.5298 42.9896 48.8847 42.8005 49.4455 43.1413C49.5901 43.2292 49.7106 43.3633 49.8355 43.4842C51.2595 44.8581 52.6813 46.232 54.1052 47.606C54.2564 47.7489 54.3857 47.9401 54.6223 47.9401Z" fill="#37404A"/>
<path d="M26.048 46.5003C26.048 47.4566 26.0436 48.4128 26.0502 49.3713C26.0524 49.6812 26.0502 49.9318 25.6252 49.9274C25.209 49.923 25.1191 49.7076 25.1257 49.3449C25.1389 48.692 25.1082 48.0391 25.1301 47.3884C25.1454 46.9488 24.9965 46.7575 24.5364 46.7641C23.4104 46.7839 22.2821 46.7795 21.1561 46.7707C20.799 46.7685 20.6478 46.8982 20.6588 47.2675C20.6763 47.9842 20.6522 48.703 20.6697 49.4196C20.6785 49.7802 20.5449 49.9296 20.1834 49.9384C19.8 49.9472 19.7058 49.7582 19.7058 49.4152C19.708 47.4808 19.697 45.5441 19.6861 43.6096C19.6839 43.2908 19.7474 43.0556 20.144 43.0534C20.5514 43.0512 20.6632 43.2578 20.6544 43.6272C20.6413 44.1701 20.6719 44.7153 20.6522 45.2583C20.6391 45.643 20.7639 45.8079 21.1714 45.7991C22.2975 45.7793 23.4257 45.7771 24.5517 45.7947C24.9811 45.8013 25.1301 45.6342 25.1126 45.2165C25.0907 44.6735 25.1213 44.1284 25.1038 43.5854C25.0929 43.2447 25.1936 43.0446 25.5661 43.0358C25.9363 43.0292 26.0458 43.2073 26.0393 43.5612C26.0217 44.5394 26.0327 45.5177 26.0327 46.4959C26.0393 46.5003 26.0436 46.5003 26.048 46.5003Z" fill="#37404A"/>
<path d="M91.0106 49.6504C90.3577 49.9361 89.9897 49.7427 89.7268 49.2041C89.0258 47.7598 88.3116 46.32 87.5974 44.8823C87.5054 44.6954 87.4659 44.4602 87.2206 44.3701C86.9643 44.425 86.9336 44.6669 86.8438 44.8515C86.1055 46.3266 85.3541 47.7972 84.6421 49.2854C84.366 49.8614 83.9827 49.8614 83.4963 49.7163C83.4613 49.4393 83.5993 49.2854 83.6847 49.1184C84.6289 47.2608 85.5797 45.4055 86.5261 43.5479C86.6729 43.2599 86.7846 42.917 87.1811 42.9038C87.5799 42.8906 87.7157 43.2204 87.8647 43.5106C88.9053 45.5374 89.9437 47.5664 91.0106 49.6504Z" fill="#37404A"/>
<path d="M7.43329 49.879C6.80455 50.0856 6.44965 49.8834 6.19114 49.336C5.52515 47.9247 4.82192 46.5288 4.12308 45.1329C4.02011 44.9284 3.97191 44.6712 3.71341 44.5723C3.45271 44.6339 3.42861 44.8801 3.3366 45.0625C2.60489 46.5156 1.87975 47.9731 1.15899 49.4305C0.909247 49.9339 0.552155 50.1208 0.0504741 49.9208C-0.0634448 49.7251 0.0395203 49.6196 0.094289 49.5075C1.09546 47.5356 2.09882 45.5637 3.1 43.5897C3.23144 43.3325 3.36289 43.0841 3.71121 43.0929C3.99163 43.0995 4.13622 43.2841 4.25014 43.5018C5.29074 45.5286 6.33135 47.5554 7.36757 49.5822C7.40701 49.657 7.40701 49.7493 7.43329 49.879Z" fill="#37404A"/>
<path d="M91.7378 42.9963C92.4388 42.8182 92.8989 42.9435 93.2845 43.4271C93.8519 44.1416 94.4456 44.834 95.0327 45.5309C95.1685 45.6936 95.2758 45.8958 95.6176 45.9837C96.3055 45.1572 97.0482 44.313 97.7295 43.4227C98.08 42.9633 98.4853 42.8116 99.022 42.9017C99.0571 42.9083 99.0856 42.9567 99.1206 42.9875C99.1929 43.1633 99.0615 43.2645 98.9673 43.3788C98.1611 44.3482 97.3702 45.3286 96.5443 46.2783C96.1193 46.7685 95.9112 47.2939 95.9703 47.9446C96.0076 48.3557 95.9725 48.7712 95.9857 49.1844C95.9966 49.523 95.9616 49.7912 95.5212 49.7912C95.0414 49.7912 95.0546 49.4482 95.1028 49.1559C95.3635 47.5775 94.7851 46.353 93.6613 45.2715C92.9756 44.6208 92.4257 43.825 91.7378 42.9963Z" fill="#37404A"/>
<path d="M32.3289 43.0004C33.1964 43.0004 34.0639 43.007 34.9315 42.996C35.271 42.9916 35.5361 43.0136 35.5208 43.4643C35.5076 43.8995 35.2469 43.9413 34.9074 43.9325C34.4736 43.9215 34.0376 43.9655 33.6061 43.9259C32.9948 43.8709 32.7604 44.071 32.7801 44.7217C32.8262 46.2011 32.8021 47.6806 32.7977 49.1622C32.7977 49.4876 32.9247 49.8986 32.3529 49.9096C31.7943 49.9206 31.8776 49.5359 31.8776 49.193C31.8732 47.7355 31.8688 46.2759 31.8644 44.8184C31.8622 43.9369 31.86 43.9369 31.0122 43.9325C30.5127 43.9303 30.0132 43.9193 29.5159 43.9347C29.1698 43.9457 29.0449 43.7698 29.0449 43.4621C29.0449 43.1477 29.1917 42.996 29.5269 43.0004C30.4601 43.0136 31.3934 43.0048 32.3267 43.0048C32.3289 43.0048 32.3289 43.0026 32.3289 43.0004Z" fill="#37404A"/>
</g>
<defs>
<clipPath id="clip0_369_18261">
<rect width="99.1379" height="50" fill="white"/>
</clipPath>
</defs>
</svg>
